<?xml version="1.0" standalone="no"?>
<!DOCTYPE svg PUBLIC "-//W3C//DTD SVG 20010904//EN"
 "http://www.w3.org/TR/2001/REC-SVG-20010904/DTD/svg10.dtd">
<svg version="1.0" xmlns="http://www.w3.org/2000/svg"
 width="500.000000pt" height="500.000000pt" viewBox="0 0 500.000000 500.000000"
 preserveAspectRatio="xMidYMid meet">

<g transform="translate(0.000000,500.000000) scale(0.100000,-0.100000)"
fill="#000000" stroke="none">
<path d="M1370 3965 c-371 -58 -678 -340 -777 -712 -35 -134 -38 -335 -5 -466
90 -360 361 -630 722 -719 128 -32 321 -29 454 6 120 31 256 96 349 167 l69
52 354 -354 355 -355 -33 -69 c-29 -61 -33 -80 -32 -150 0 -64 5 -91 26 -136
35 -77 89 -133 162 -169 87 -43 163 -49 257 -20 63 19 81 30 134 83 83 83 109
149 103 262 -6 97 -33 161 -98 225 -73 74 -127 95 -240 95 -86 0 -102 -3 -157
-31 l-62 -30 -355 355 -355 356 54 69 c154 198 224 476 186 736 -44 296 -234
563 -504 705 -191 100 -391 133 -607 100z m260 -76 c427 -53 755 -403 777
-829 6 -120 -6 -214 -42 -327 -86 -270 -328 -500 -610 -579 -90 -25 -303 -30
-403 -10 -411 83 -705 444 -705 866 0 452 326 821 778 880 88 11 112 11 205
-1z m1655 -2287 c190 -97 191 -370 2 -466 -225 -115 -464 121 -352 349 28 58
75 101 140 128 53 23 156 17 210 -11z"/>
<path d="M3090 2716 l0 -215 -22 -3 c-21 -3 -23 -9 -26 -70 -3 -62 -1 -68 17
-68 17 0 20 8 23 48 l3 47 290 0 290 0 3 -47 c3 -40 6 -48 23 -48 18 0 20 6
17 68 -3 61 -5 67 -25 70 l-23 3 0 215 0 214 -85 0 c-78 0 -85 -2 -85 -20 0
-18 7 -20 65 -20 l65 0 0 -60 0 -60 -65 0 c-58 0 -65 -2 -65 -20 0 -18 7 -20
65 -20 l65 0 0 -45 0 -44 -62 -3 c-50 -2 -63 -6 -66 -20 -3 -16 5 -18 62 -18
l66 0 0 -50 0 -50 -245 0 -245 0 0 50 0 50 66 0 c57 0 65 2 62 18 -3 14 -16
18 -66 20 l-62 3 0 44 0 45 65 0 c58 0 65 2 65 20 0 18 -7 20 -65 20 l-65 0 0
60 0 60 65 0 c58 0 65 2 65 20 0 18 -7 20 -85 20 l-85 0 0 -214z"/>
<path d="M3770 2910 c0 -20 5 -21 102 -18 89 3 103 5 106 21 3 15 -7 17 -102
17 -100 0 -106 -1 -106 -20z"/>
<path d="M4120 2910 c0 -19 7 -20 140 -20 l140 0 0 -90 c0 -83 1 -90 20 -90
19 0 20 7 20 110 l0 110 -160 0 c-153 0 -160 -1 -160 -20z"/>
<path d="M3770 2770 c0 -20 5 -21 102 -18 89 3 103 5 106 21 3 15 -7 17 -102
17 -100 0 -106 -1 -106 -20z"/>
<path d="M3777 2653 c-4 -3 -7 -15 -7 -25 0 -16 10 -18 123 -18 107 0 126 2
140 18 10 10 14 22 10 25 -8 9 -258 9 -266 0z"/>
<path d="M4087 2642 c-9 -10 -14 -22 -10 -25 3 -4 87 -7 185 -7 l179 0 -3 23
c-3 22 -5 22 -169 25 -150 2 -167 1 -182 -16z"/>
<path d="M3911 2505 c-18 -8 -42 -15 -52 -15 -11 0 -19 -4 -19 -10 0 -6 28
-10 65 -10 63 0 65 1 65 25 0 28 -11 30 -59 10z"/>
<path d="M4050 2310 c0 -203 1 -210 20 -210 19 0 20 7 20 100 l0 100 35 0 35
0 0 -65 c0 -58 2 -65 20 -65 16 0 19 8 22 63 l3 62 35 0 35 0 3 -62 c3 -54 6
-63 22 -63 16 0 19 9 22 63 l3 62 35 0 35 0 3 -97 3 -98 -41 0 c-33 0 -40 -3
-40 -20 0 -18 7 -20 60 -20 l60 0 0 230 0 230 -195 0 -195 0 0 -210z m110 95
l0 -65 -35 0 -35 0 0 65 0 65 35 0 35 0 0 -65z m120 0 l0 -65 -40 0 -40 0 0
65 0 65 40 0 40 0 0 -65z m120 0 l0 -65 -40 0 -40 0 0 65 0 65 40 0 40 0 0
-65z"/>
<path d="M3190 2400 c0 -19 7 -20 180 -20 173 0 180 1 180 20 0 19 -7 20 -180
20 -173 0 -180 -1 -180 -20z"/>
<path d="M3772 2358 c3 -21 9 -23 81 -26 l77 -3 0 -79 c0 -73 2 -80 20 -80 19
0 20 7 20 105 l0 105 -101 0 c-98 0 -100 0 -97 -22z"/>
<path d="M3083 2245 c-3 -9 -4 -17 -2 -19 4 -4 344 -9 492 -7 80 1 87 3 87 21
0 20 -7 20 -285 20 -248 0 -286 -2 -292 -15z"/>
<path d="M3770 2160 l0 -100 100 0 c93 0 100 1 100 20 0 18 -7 20 -80 20 l-80
0 0 80 c0 73 -2 80 -20 80 -19 0 -20 -7 -20 -100z"/>
</g>
</svg>
